<?xml version="1.0" encoding="utf-8"?>
<svg xmlns="http://www.w3.org/2000/svg" viewBox="110 430 980 255">
<g fill="#0C1F3F">
  <g>
    <polygon points="275.35,534.4 266.32,594.81 199.98,594.81 188.13,674.09 326.45,674.09 347.33,534.4"/>
    <polygon points="275.35,534.4 287.2,455.12 148.88,455.12 128,594.81 199.98,594.81 209.01,534.4"/>
    <polygon points="381.67,500.2 390.7,439.79 324.37,439.79 315.34,500.2"/>
  </g>
  <path d="M522.53,520.85c-10.47-4.63-22.71-6.98-36.39-6.98c-16.37,0-31.83,3.52-45.95,10.47c-14.12,6.95-25.95,16.72-35.14,29.05c-9.19,12.33-15.02,26.45-17.33,41.99c-2.31,15.53-0.68,29.65,4.85,41.96c5.52,12.31,14.35,22.07,26.24,29.01c11.9,6.94,26.15,10.46,42.37,10.46c11.31,0,22.96-1.74,34.64-5.18c11.63-3.43,22.3-8.4,31.71-14.8l9.46-63.69h-32.69l-6.87,46.2l-0.13,0.07c-9.06,4.52-18.98,6.81-29.47,6.81c-9.9,0-18.52-2.18-25.61-6.48c-7.1-4.3-12.33-10.39-15.55-18.09c-3.21-7.69-4.1-16.56-2.65-26.35c1.48-9.94,5.01-18.87,10.5-26.55c5.49-7.68,12.54-13.71,20.97-17.93c8.43-4.22,17.79-6.35,27.83-6.35c15.8,0,28.62,5.96,38.09,17.72l26.17-21.33C541.31,532.17,532.89,525.44,522.53,520.85z"/>
  <polygon points="597.52,644.85 597.57,644.52 616.58,516.56 580.74,516.56 557.33,674.09 672.1,674.09 676.44,644.85"/>
  <path d="M807.77,652.64c6.07-7.38,9.82-15.65,11.14-24.59c1.55-10.41,0.06-18.77-4.43-24.86c-4.5-6.1-10.4-10.63-17.53-13.45c-7.18-2.84-16.65-5.73-28.14-8.57c-11.13-2.55-19.43-5.18-24.65-7.81c-5.33-2.68-7.61-6.85-6.79-12.38c0.81-5.48,3.97-9.96,9.39-13.3c5.39-3.33,13.29-5.01,23.49-5.01c14.43,0,28.44,4.14,41.67,12.31l15.1-27.29c-6.42-4.4-14.27-7.83-23.33-10.2c-9.18-2.39-18.88-3.6-28.84-3.6c-14.29,0-26.87,2.2-37.4,6.53c-10.52,4.33-18.9,10.27-24.89,17.65c-5.99,7.38-9.71,15.73-11.06,24.82c-1.55,10.42-0.07,18.86,4.4,25.09c4.48,6.25,10.37,10.85,17.5,13.68c7.19,2.85,16.66,5.73,28.14,8.57c7.47,1.79,13.47,3.47,17.84,4.98c4.37,1.52,7.89,3.55,10.46,6.05c2.61,2.54,3.65,5.78,3.08,9.62c-0.77,5.19-3.93,9.4-9.39,12.52c-5.42,3.1-13.42,4.67-23.76,4.67c-9.29,0-18.48-1.53-27.3-4.53c-8.71-2.96-16.14-6.93-22.11-11.81l-16.16,27.06c6.17,5.3,14.83,9.67,25.74,13c11.03,3.36,22.89,5.07,35.25,5.07c14.28,0,26.9-2.2,37.51-6.53C793.25,665.96,801.7,660.03,807.77,652.64z"/>
  <g>
    <g>
      <path d="M907.08,609.55h-0.45l6.5-13.85h5.62h4.71h29.79l1.25-7.85H924.7h-4.71h-3.18l5.92-12.62h-8.71l-5.92,12.62h-17.9l-1.25,7.85h15.47l-6.5,13.85h-15.74l-1.25,7.85h13.3l-9.74,20.76h8.71l0.02-0.04h38.99c2.73,0,3.73,2.12,3.97,2.76c0.24,0.65,0.86,2.9-1.21,4.68l-24.14,20.7h-1.81c-7.3,0-11.24-1.36-13.84-9.09l-2.16-6.58h-8.29l2.97,9.07c4.3,12.76,13.19,14.48,21.32,14.48h13.93v-0.01h1.58h2.49h0.61h7.15h0.61h2.49h7.76l1.25-7.9h-7.76h-2.49h-0.61h-7.15h-0.61h-2.49h-2.81l17.13-14.68c3.89-3.33,5.25-8.59,3.47-13.4c-1.78-4.8-6.24-7.91-11.36-7.91h-35.3l6.02-12.84h2.89h9.61h37.49l1.25-7.85h-37.49H907.08z"/>
      <path d="M877.87,575.23l-12.44,27.17c-1.16,2.07-2.49,2.92-4.91,3.19l-4.5,0l-1.31,8.23h6.67c0.8,0,1.55-0.07,2.18-0.14l0.63-0.07l-0.1,0.62l-9.51,59.9h8.94l11.88-73.02l11.9-25.89H877.87z"/>
    </g>
    <g>
      <path d="M1059.91,664.62c-0.83-0.97-1.24-2.22-1.07-3.26L1073,576.2h-44.65l-1.2,8.01h10.1l-0.09,0.56l-6.93,41.67h-10.05l-1.24,7.78h9.99l-0.09,0.56l-6.54,39.35h9.28l6.64-39.91h9.88l1.24-7.78h-9.82l0.09-0.56l6.92-41.67h15.9l-0.1,0.56l-13.19,77.82c-0.44,2.82,0.24,5.7,1.9,7.9c1.84,2.3,4.47,3.62,7.2,3.62h6.17l1.18-8.09h-2.99C1061.65,666.02,1060.67,665.51,1059.91,664.62z"/>
      <path d="M1005.15,597.06l-2.05,0.01c-1.87,0.01-3.54-1.18-4.15-2.95l-4.57-13.39h-0.02l-1.84-5.41h-8.33l4.39,12.87h0.02l3.46,10.13c1.36,3.99,5.11,6.66,9.33,6.64l8.38-0.03h4.99l1.25-7.9h-10.85L1005.15,597.06z"/>
      <path d="M993.8,663.57c-0.7-0.92-0.92-2.08-0.64-3.09l11.18-37.14h0.01l0.01-0.06l2.35-7.8h-9.43l0,0.01h-16.78h-1.68l-1.25,7.85h1.68h15.66l-10.42,34.63c-1.07,3.85-0.29,7.89,2.13,11.07c2.42,3.18,6.1,5.01,10.1,5.01h17.47l1.43-9.03h-18.9C995.56,665.01,994.5,664.49,993.8,663.57z"/>
    </g>
  </g>
</g>
</svg>
